<?xml version="1.0" encoding="UTF-8"?>
<svg id="Layer_1" data-name="Layer 1" xmlns="http://www.w3.org/2000/svg" viewBox="0 0 250 161">
  <defs>
    <style>
      .cls-1 {
        fill: #fff;
      }
    </style>
  </defs>
  <path class="cls-1" d="M30.42,47.41c-2.4-2.56-5.87-4.22-10.91-4.22C6.78,43.2,0,52.7,0,63.7s7.03,20.5,19.51,20.5c5.04,0,8.51-1.49,10.91-3.97v.74c0,5.95-1.82,9.75-9.42,9.75-4.38,0-7.61-1.9-8.76-3.55l-10.99,6.53c3.39,5.87,11.82,9.09,20.5,9.09,14.88,0,23.56-8.18,23.56-20.34V44.19h-14.88v3.22Zm-7.94,23.81c-4.63,0-7.52-3.14-7.52-7.52s2.89-7.52,7.52-7.52c4.38,0,7.44,2.81,7.44,7.52s-3.06,7.52-7.44,7.52Z"/>
  <path class="cls-1" d="M68.45,50.8v-6.61h-14.88v41.91h14.88v-15.79c0-6.7,1.24-12.32,12.48-10.99v-16.12c-4.79,0-9.67,2.81-12.48,7.6Z"/>
  <path class="cls-1" d="M160.12,76.68c-3.72,0-5.13-1.9-5.54-3.47l-13.06,4.05c1.74,7.36,10.33,9.92,18.77,9.92,12.32,0,19.59-5.21,19.59-14.05,0-7.69-4.96-10.75-15.54-12.98-3.31-.66-7.11-.99-7.11-3.55,0-1.98,1.74-3.06,4.38-3.06,2.48,0,3.97,1.24,4.55,3.14l11.9-2.89c-1.82-7.11-9.34-10.58-16.53-10.58-10.5,0-18.68,5.04-18.68,13.81,0,8.18,5.04,11.08,13.14,12.9,4.88,1.07,8.43,1.24,8.43,3.8,0,1.74-1.49,2.98-4.3,2.98Z"/>
  <path class="cls-1" d="M111.11,16.54c0-9.14-7.41-16.54-16.54-16.54s-16.54,7.41-16.54,16.54c0,8.09,5.81,14.81,13.48,16.25v11.4h-4.38v41.91h14.88V44.19h-4.38v-11.4c7.67-1.44,13.48-8.16,13.48-16.25Z"/>
  <path class="cls-1" d="M233.46,104.42c-4.54,0-8.64,1.83-11.63,4.79l-8.73-5.59c.76-1.9,1.18-3.96,1.18-6.12,0-2.27-.46-4.44-1.29-6.41l8.55-5.6c3.01,3.13,7.23,5.08,11.91,5.08,9.14,0,16.54-7.41,16.54-16.54s-7.41-16.54-16.54-16.54-16.54,7.41-16.54,16.54c0,2.25,.45,4.39,1.27,6.34l-8.57,5.61c-3.01-3.1-7.21-5.03-11.87-5.03-9.14,0-16.54,7.41-16.54,16.54,0,2.25,.45,4.39,1.27,6.34l-8.53,5.58c-3.01-3.13-7.23-5.08-11.91-5.08-6.49,0-12.09,3.75-14.8,9.19-.33-.04-.66-.06-1.02-.06-9.7,0-17.9-4.72-17.9-16.2V56.76h8.27v-12.57h-8.27v-8.76h-14.88v8.76h-5.21v12.57h5.21v40.75c0,14.29,11.35,30.87,31.74,30.87h2.13c2.74,5.36,8.3,9.04,14.73,9.04,4.74,0,9.01-2.01,12.02-5.2l8.58,5.5c-.91,2.05-1.43,4.32-1.43,6.71,0,9.14,7.41,16.54,16.54,16.54s16.54-7.41,16.54-16.54-7.41-16.54-16.54-16.54c-4.54,0-8.64,1.83-11.63,4.79l-8.75-5.61c.77-1.91,1.21-4,1.21-6.19s-.45-4.39-1.27-6.34l8.53-5.58c3.01,3.13,7.23,5.08,11.91,5.08s9.05-2.03,12.07-5.26l8.54,5.47c-.91,2.05-1.43,4.32-1.43,6.71,0,9.14,7.41,16.54,16.54,16.54s16.54-7.41,16.54-16.54-7.41-16.54-16.54-16.54Z"/>
</svg>