<?xml version="1.0" encoding="UTF-8"?>
<svg id="Layer_1" data-name="Layer 1" xmlns="http://www.w3.org/2000/svg" viewBox="0 0 250 161">
  <defs>
    <style>
      .cls-1 {
        fill: #1d1d1b;
      }
    </style>
  </defs>
  <path class="cls-1" d="M30.39,47.45c-2.4-2.56-5.86-4.21-10.9-4.21C6.77,43.24,0,52.74,0,63.72s7.02,20.48,19.49,20.48c5.04,0,8.51-1.49,10.9-3.96v.74c0,5.95-1.82,9.75-9.42,9.75-4.38,0-7.6-1.9-8.76-3.55l-10.99,6.53c3.39,5.86,11.81,9.09,20.48,9.09,14.87,0,23.54-8.18,23.54-20.32V44.23h-14.87v3.22Zm-7.93,23.79c-4.63,0-7.52-3.14-7.52-7.52s2.89-7.52,7.52-7.52c4.38,0,7.43,2.81,7.43,7.52s-3.06,7.52-7.43,7.52Z"/>
  <path class="cls-1" d="M68.39,50.84v-6.61h-14.87v41.88h14.87v-15.78c0-6.69,1.24-12.31,12.47-10.99v-16.11c-4.79,0-9.66,2.81-12.47,7.6Z"/>
  <path class="cls-1" d="M159.98,76.69c-3.72,0-5.12-1.9-5.53-3.47l-13.05,4.05c1.73,7.35,10.32,9.91,18.75,9.91,12.31,0,19.57-5.2,19.57-14.04,0-7.68-4.96-10.74-15.53-12.97-3.3-.66-7.1-.99-7.1-3.55,0-1.98,1.73-3.06,4.38-3.06,2.48,0,3.96,1.24,4.54,3.14l11.89-2.89c-1.82-7.1-9.33-10.57-16.52-10.57-10.49,0-18.67,5.04-18.67,13.79,0,8.18,5.04,11.07,13.13,12.89,4.87,1.07,8.42,1.24,8.42,3.8,0,1.73-1.49,2.97-4.29,2.97Z"/>
  <path class="cls-1" d="M111.02,16.61C111.02,7.48,103.61,.08,94.49,.08s-16.53,7.4-16.53,16.53c0,8.08,5.8,14.8,13.47,16.24v11.39h-4.37v41.88h14.87V44.23h-4.37v-11.39c7.67-1.44,13.47-8.15,13.47-16.24Z"/>
  <path class="cls-1" d="M233.25,104.41c-4.53,0-8.64,1.83-11.62,4.78l-8.72-5.59c.76-1.89,1.18-3.95,1.18-6.12,0-2.27-.46-4.44-1.29-6.41l8.54-5.59c3.01,3.13,7.22,5.08,11.9,5.08,9.13,0,16.53-7.4,16.53-16.53s-7.4-16.53-16.53-16.53-16.53,7.4-16.53,16.53c0,2.25,.45,4.39,1.26,6.34l-8.57,5.61c-3-3.1-7.2-5.03-11.86-5.03-9.13,0-16.53,7.4-16.53,16.53,0,2.25,.45,4.39,1.26,6.34l-8.52,5.58c-3.01-3.13-7.22-5.08-11.9-5.08-6.48,0-12.08,3.74-14.79,9.18-.33-.04-.66-.06-1.02-.06-9.69,0-17.89-4.72-17.89-16.19V56.79h8.26v-12.55h-8.26v-8.76h-14.87v8.76h-5.2v12.55h5.2v40.72c0,14.28,11.34,30.84,31.71,30.84h2.13c2.73,5.36,8.29,9.03,14.72,9.03,4.74,0,9-2,12.01-5.2l8.58,5.5c-.91,2.05-1.43,4.32-1.43,6.71,0,9.13,7.4,16.53,16.53,16.53s16.53-7.4,16.53-16.53-7.4-16.53-16.53-16.53c-4.53,0-8.64,1.83-11.62,4.78l-8.74-5.6c.77-1.91,1.21-4,1.21-6.19s-.45-4.39-1.26-6.34l8.52-5.58c3.01,3.13,7.22,5.08,11.9,5.08s9.04-2.03,12.06-5.25l8.53,5.47c-.91,2.05-1.43,4.32-1.43,6.71,0,9.13,7.4,16.53,16.53,16.53s16.53-7.4,16.53-16.53-7.4-16.53-16.53-16.53Z"/>
</svg>